<?xml version="1.0" standalone="no"?>
<!DOCTYPE svg PUBLIC "-//W3C//DTD SVG 20010904//EN"
 "http://www.w3.org/TR/2001/REC-SVG-20010904/DTD/svg10.dtd">
<svg version="1.0" xmlns="http://www.w3.org/2000/svg"
 width="700.000000pt" height="700.000000pt" viewBox="0 0 700.000000 700.000000"
 preserveAspectRatio="xMidYMid meet">
<metadata>
Created by potrace 1.11, written by Peter Selinger 2001-2013
</metadata>
<g transform="translate(0.000000,700.000000) scale(0.100000,-0.100000)"
fill="#000000" stroke="none">
<path d="M933 6970 c-104 -27 -180 -71 -270 -156 -40 -38 -114 -152 -141 -217
-66 -157 -62 76 -59 -3117 1 -1598 5 -2914 9 -2925 3 -11 13 -45 22 -76 61
-210 222 -382 411 -442 l70 -22 1825 0 c1004 0 1856 3 1894 8 58 6 151 23 282
52 59 12 210 62 298 97 630 250 1047 740 1210 1418 25 108 40 188 51 275 3 28
8 64 10 80 3 17 8 55 11 85 11 98 12 2652 1 2687 -6 18 -23 45 -39 60 -26 25
-36 27 -146 34 -207 12 -359 41 -533 100 -435 147 -761 428 -957 825 -67 135
-128 308 -158 446 -16 75 -33 170 -39 217 -4 30 -8 62 -10 71 -5 26 -17 216
-20 320 -3 107 -11 134 -50 170 l-27 25 -1786 2 c-1720 2 -1790 1 -1859 -17z
m3251 -1310 c17 -9 34 -38 57 -99 60 -162 173 -398 258 -540 171 -287 341
-437 752 -661 76 -41 123 -73 137 -94 l22 -32 0 -814 c0 -448 -2 -826 -4 -840
-2 -14 -7 -51 -11 -84 -29 -252 -123 -497 -262 -678 -46 -60 -141 -159 -190
-196 -114 -89 -195 -136 -338 -197 -71 -31 -206 -65 -355 -91 -19 -3 -546 -6
-1170 -5 -1248 0 -1179 -4 -1281 61 -88 57 -157 162 -178 270 -7 38 -9 627 -8
1875 2 1768 3 1821 22 1865 66 156 179 250 322 268 31 4 540 7 1130 6 854 -1
1078 -3 1097 -14z"/>
<path d="M5116 6982 c-3 -5 -4 -24 -1 -43 2 -19 6 -70 10 -114 7 -85 12 -133
21 -177 3 -15 7 -39 9 -55 32 -245 162 -588 291 -770 133 -186 326 -330 529
-392 88 -27 131 -34 225 -35 l75 -1 0 95 c0 114 -25 319 -54 450 -115 504
-401 853 -812 989 -37 12 -80 24 -95 27 -16 3 -45 9 -64 14 -60 15 -128 21
-134 12z"/>
</g>
</svg>
