<svg id="Layer_1" enable-background="new 0 0 256 256" height="512" viewBox="0 0 256 256" width="512" xmlns="http://www.w3.org/2000/svg"><g><g fill="#ffbb98"><path d="m128.399 5.163c-54.107 45.32-.003 71.887 0 71.889.003-.001 54.107-26.569 0-71.889z"/><path d="m70.586 71.458c2.205 70.545 56.522 44.418 56.526 44.417 0-.003 12.539-58.959-56.526-44.417z"/><path d="m185.814 71.458c-2.205 70.545-56.522 44.418-56.526 44.417 0-.003-12.539-58.959 56.526-44.417z"/><path d="m70.586 125.129c2.205 70.545 56.522 44.418 56.526 44.417 0-.003 12.539-58.959-56.526-44.417z"/><path d="m185.614 125.129c-2.205 70.545-56.522 44.418-56.526 44.417 0-.003-12.539-58.959 56.526-44.417z"/><path d="m70.386 178.801c2.205 70.545 56.522 44.418 56.526 44.417 0-.004 12.539-58.96-56.526-44.417z"/><path d="m185.614 178.801c-2.205 70.545-56.522 44.418-56.526 44.417 0-.004-12.539-58.96 56.526-44.417z"/></g><path d="m152.45 43.946c0 21.3-24.05 33.1-24.05 33.11 0 0-3.32-1.64-7.5-4.78 7.06-5.31 16.55-14.95 16.55-28.33 0-9.01-4.3-19.72-16.55-31.95 2.23-2.23 4.72-4.5 7.5-6.83 18.04 15.11 24.05 28.131 24.05 38.78z" fill="#ffaa80"/><path d="m135.9 72.276c-4.18 3.14-7.5 4.78-7.5 4.78 0-.01-54.11-26.57 0-71.89 2.78 2.33 5.27 4.6 7.5 6.83-30.44 30.4-11.81 51.39 0 60.28z" fill="#ffcaa6"/><path d="m128 105.827c0 5.87-.89 10.05-.89 10.05s-6.23 2.99-14.55 4.21c.01-.01.02-.01.02-.01s1.42-5.78 1.42-13.39c0-15.03-5.51-37.2-38.23-36.22 45.95-7.66 52.23 19.779 52.23 35.36z" fill="#ffaa80"/><path d="m128 159.494c0 5.87-.89 10.05-.89 10.05s-6.23 2.99-14.55 4.21c.01-.01.02-.01.02-.01s1.42-5.78 1.42-13.39c0-15.03-5.51-37.2-38.23-36.22 45.95-7.66 52.23 19.78 52.23 35.36z" fill="#ffaa80"/><path d="m127.8 213.176c0 5.87-.89 10.05-.89 10.05s-6.23 2.99-14.55 4.21c.01-.01.02-.01.02-.01s1.42-5.78 1.42-13.39c0-15.03-5.51-37.2-38.23-36.22 45.95-7.66 52.23 19.78 52.23 35.36z" fill="#ffaa80"/><path d="m117.1 119.226c-15.79 3.71-44.91 3.49-46.51-47.77 5.48-1.16 10.45-1.85 14.95-2.14-.39.08-.8.16-1.2.24 1.36 38.271 17.82 48.45 32.76 49.67z" fill="#ffcaa6"/><path d="m115.85 173.176c-16.04 3.39-43.7 1.88-45.26-48.05 5.38-1.14 10.26-1.82 14.7-2.13-.35.07-.72.14-1.08.22 1.33 37.4 16.95 48.2 31.64 49.96z" fill="#ffcaa6"/><path d="m114.61 227.057c-16.16 3.09-42.7.61-44.22-48.26 4.87-1.03 9.33-1.69 13.42-2.03 1.28 36.82 16.3 48.109 30.8 50.29z" fill="#ffcaa6"/><path d="m185.81 71.456c-1.63 52.41-32.03 51.47-47.55 47.51 15.21-.84 32.38-10.57 33.84-49.56 4.17.33 8.73 1.001 13.71 2.05z" fill="#ffaa80"/><path d="m185.61 125.126c-1.58 50.71-30.09 51.47-46 47.89 14.94-1.45 31.11-11.94 32.51-49.92 4.11.33 8.6 1 13.49 2.03z" fill="#ffaa80"/><path d="m185.61 178.797c-1.52 48.82-28.01 51.34-44.17 48.27 14.48-2.21 29.45-13.53 30.74-50.3 4.09.339 8.56.999 13.43 2.03z" fill="#ffaa80"/><path d="m180.74 70.486c-33.54-.8-39 22.14-39 37.16 0 6.14.91 10.96 1.19 12.3-7.86-1.29-13.64-4.07-13.64-4.07s-.89-4.18-.89-10.05c0-15.59 6.29-43.06 52.34-35.34z" fill="#ffcaa6"/><path d="m141.84 160.946c0 7.18 1.26 12.54 1.26 12.54s.2.1.57.28c-8.34-1.22-14.58-4.22-14.58-4.22s-.89-4.18-.89-10.05c0-15.48 6.2-42.67 51.35-35.5-32.4-.29-37.71 22.19-37.71 36.95z" fill="#ffcaa6"/><path d="m141.84 214.62c0 7.18 1.26 12.54 1.26 12.54s.2.1.57.28c-8.34-1.22-14.58-4.22-14.58-4.22s-.89-4.18-.89-10.05c0-15.48 6.2-42.67 51.35-35.5-32.4-.29-37.71 22.19-37.71 36.95z" fill="#ffcaa6"/><path d="m189.61 125.256c.06-1.94-1.27-3.64-3.17-4.04-5.73-1.2-11.09-1.95-16.07-2.25 12.04-7.96 18.51-23.9 19.24-47.38.06-1.94-1.27-3.64-3.17-4.04-16.9-3.56-30.57-3.14-40.84 1.23 4.78-5.12 9.08-11.86 10.31-20.18 2.21-15.03-6.25-30.67-25.14-46.5-1.49-1.24-3.65-1.24-5.14 0-18.54 15.53-27.03 30.9-25.25 45.68 1.07 8.85 5.66 15.97 10.7 21.3-10.34-4.65-24.25-5.17-41.52-1.53-1.9.4-3.23 2.1-3.17 4.04.73 23.48 7.2 39.42 19.24 47.38-4.98.3-10.34 1.05-16.07 2.25-1.9.4-3.23 2.1-3.17 4.04.73 23.47 7.19 39.4 19.22 47.38-4.98.3-10.33 1.05-16.05 2.25-1.9.4-3.23 2.1-3.17 4.04.77 24.81 7.94 41.17 21.3 48.65 10.945 6.127 24.671 5.113 36.49 1v22.29c0 5.284 8 5.295 8 0v-22.13c12.1 4.156 26.099 4.969 37.13-1.74 12.72-7.74 19.55-23.91 20.3-48.07.06-1.94-1.27-3.64-3.17-4.04-5.72-1.2-11.07-1.95-16.05-2.25 12.03-7.98 18.49-23.91 19.22-47.38zm-65.43 7.94c-2.822-3.823-6.402-6.927-10.65-9.24 4.27-.67 7.97-1.75 10.65-2.69zm0 53.67c-2.82-3.82-6.398-6.922-10.64-9.24 4.27-.67 7.97-1.75 10.64-2.69zm8-11.799c2.64.9 6.2 1.92 10.28 2.56-4.15 2.268-7.642 5.295-10.28 8.76zm0-53.671c2.64.9 6.21 1.92 10.29 2.56-4.164 2.267-7.655 5.3-10.29 8.76zm49.29-46.68c-1.13 19.38-6.61 32.18-16.3 38.09-9.4 5.73-21.07 3.8-28.1 1.73l22.36-18.17c4.096-3.329-.94-9.546-5.05-6.2l-22.12 17.98c-.31-7.34.65-18.92 8.34-26.6 8.04-8.03 21.78-10.32 40.87-6.83zm-73.15-27.929c-1.35-11.27 5.34-23.49 19.88-36.35 14.54 12.86 21.22 25.08 19.88 36.35-1.3 10.88-9.94 18.83-15.9 23.09v-36.21c0-5.285-8-5.293-8 0v36.19c-5.96-4.27-14.56-12.211-15.86-23.07zm-33.79 27.929c19.1-3.49 32.83-1.2 40.87 6.83 7.69 7.68 8.65 19.26 8.34 26.6l-22.12-17.98c-4.11-3.346-9.146 2.871-5.05 6.2l22.36 18.17c-7.03 2.07-18.7 4-28.1-1.73-9.69-5.91-15.17-18.71-16.3-38.09zm0 53.67c30.167-5.496 50.486 3.228 49.21 33.43l-22.12-17.98c-4.11-3.346-9.146 2.871-5.05 6.2l22.36 18.17c-7.03 2.07-18.7 4-28.1-1.73-9.69-5.909-15.17-18.71-16.3-38.09zm16.3 91.76c-9.69-5.9-15.17-18.71-16.3-38.09 30.175-5.498 50.485 3.229 49.21 33.43l-22.12-17.98c-4.103-3.34-9.15 2.854-5.05 6.21l22.35 18.17c-7.03 2.06-18.69 3.99-28.09-1.74zm90.64-38.089c-1.13 19.38-6.61 32.19-16.3 38.09-9.4 5.73-21.06 3.8-28.09 1.74l22.35-18.17c4.104-3.36-.956-9.542-5.05-6.21l-22.12 17.98c-1.282-30.354 19.242-38.893 49.21-33.43zm-16.3-15.581c-9.4 5.73-21.07 3.8-28.1 1.73l22.36-18.17c4.096-3.329-.94-9.546-5.05-6.2l-22.12 17.98c-1.279-30.287 19.173-38.921 49.21-33.43-1.13 19.38-6.61 32.181-16.3 38.09z" fill="#5f266d"/></g></svg>