<svg height="512" viewBox="0 0 256 256" width="512" xmlns="http://www.w3.org/2000/svg"><path d="m189.423 254a2 2 0 0 1 -2-2v-155.163a2 2 0 1 1 4 0v155.163a2 2 0 0 1 -2 2z" fill="#690589"/><path d="m231.317 142.853a2.8 2.8 0 0 0 -1.98-1.98 31.716 31.716 0 0 0 -38.846 38.845 2.8 2.8 0 0 0 1.98 1.98 31.717 31.717 0 0 0 38.846-38.845z" fill="#fcc24c"/><path d="m231.317 189.171a2.8 2.8 0 0 0 -1.98-1.98 31.717 31.717 0 0 0 -38.846 38.845 2.8 2.8 0 0 0 1.98 1.98 31.716 31.716 0 0 0 38.846-38.845z" fill="#fcc24c"/><path d="m231.317 142.85a2.8 2.8 0 0 0 -1.98-1.98 31.706 31.706 0 0 0 -12.137-.812 31.59 31.59 0 0 1 4.137.812 2.8 2.8 0 0 1 1.98 1.98 31.67 31.67 0 0 1 -26.711 39.656 31.708 31.708 0 0 0 34.711-39.656z" fill="#dea42e"/><path d="m231.317 189.166a2.8 2.8 0 0 0 -1.98-1.98 31.706 31.706 0 0 0 -12.137-.812 31.59 31.59 0 0 1 4.137.812 2.8 2.8 0 0 1 1.98 1.98 31.67 31.67 0 0 1 -26.711 39.655 31.708 31.708 0 0 0 34.711-39.655z" fill="#dea42e"/><path d="m231.317 96.535a2.8 2.8 0 0 0 -1.98-1.98 31.716 31.716 0 0 0 -38.846 38.845 2.8 2.8 0 0 0 1.98 1.98 31.717 31.717 0 0 0 38.846-38.845z" fill="#fcc24c"/><path d="m190.823 44.32a2.8 2.8 0 0 0 -2.8 0 31.717 31.717 0 0 0 0 54.936 2.8 2.8 0 0 0 2.8 0 31.717 31.717 0 0 0 0-54.936z" fill="#fcc24c"/><path d="m190.823 44.32a2.8 2.8 0 0 0 -2.8 0c-.9.523-1.762 1.1-2.6 1.7a31.667 31.667 0 0 1 0 51.534c.838.6 1.7 1.178 2.6 1.7a2.8 2.8 0 0 0 2.8 0 31.718 31.718 0 0 0 0-54.936z" fill="#dea42e"/><path d="m189.422 101.632a4.8 4.8 0 0 1 -2.4-.645 33.716 33.716 0 0 1 0-58.4 4.8 4.8 0 0 1 4.8 0 33.716 33.716 0 0 1 0 58.4 4.8 4.8 0 0 1 -2.4.645zm0-55.687a.791.791 0 0 0 -.4.107 29.716 29.716 0 0 0 0 51.473.807.807 0 0 0 .8 0 29.716 29.716 0 0 0 0-51.474.791.791 0 0 0 -.4-.106z" fill="#690589"/><path d="m180.145 102.763a31.839 31.839 0 0 0 -30.636-8.208 2.8 2.8 0 0 0 -1.981 1.98 31.748 31.748 0 0 0 38.846 38.845 2.8 2.8 0 0 0 1.98-1.98 31.842 31.842 0 0 0 -8.209-30.637z" fill="#fcc24c"/><path d="m231.317 96.535a2.8 2.8 0 0 0 -1.98-1.981 31.746 31.746 0 0 0 -12.137-.812 31.923 31.923 0 0 1 4.137.812 2.8 2.8 0 0 1 1.98 1.981 31.67 31.67 0 0 1 -26.711 39.655 31.708 31.708 0 0 0 34.711-39.655z" fill="#dea42e"/><path d="m180.145 149.081a31.839 31.839 0 0 0 -30.636-8.208 2.8 2.8 0 0 0 -1.981 1.98 31.746 31.746 0 0 0 38.846 38.847 2.8 2.8 0 0 0 1.98-1.98 31.843 31.843 0 0 0 -8.209-30.639z" fill="#fcc24c"/><path d="m180.145 195.4a31.837 31.837 0 0 0 -30.636-8.209 2.8 2.8 0 0 0 -1.981 1.98 31.746 31.746 0 0 0 38.846 38.845 2.8 2.8 0 0 0 1.98-1.98 31.841 31.841 0 0 0 -8.209-30.636z" fill="#fcc24c"/><g fill="#690589"><path d="m178.214 138.448a33.7 33.7 0 0 1 -32.614-42.429 4.81 4.81 0 0 1 3.4-3.4 33.843 33.843 0 0 1 32.568 8.726 33.844 33.844 0 0 1 8.726 32.567 4.811 4.811 0 0 1 -3.394 3.4 33.678 33.678 0 0 1 -8.686 1.136zm-20.542-42.963a29.678 29.678 0 0 0 -7.648 1 .8.8 0 0 0 -.564.565 29.749 29.749 0 0 0 36.4 36.4.8.8 0 0 0 .564-.565 29.7 29.7 0 0 0 -28.75-37.4z"/><path d="m200.632 138.448a33.653 33.653 0 0 1 -8.677-1.136 4.807 4.807 0 0 1 -3.4-3.4 33.717 33.717 0 0 1 41.294-41.293 4.81 4.81 0 0 1 3.4 3.4 33.7 33.7 0 0 1 -32.618 42.428zm20.542-42.963a29.7 29.7 0 0 0 -28.75 37.4.8.8 0 0 0 .564.564 29.718 29.718 0 0 0 36.4-36.4.8.8 0 0 0 -.565-.563 29.663 29.663 0 0 0 -7.649-1.001z"/><path d="m178.214 184.767a33.7 33.7 0 0 1 -32.618-42.43 4.816 4.816 0 0 1 3.4-3.4 33.847 33.847 0 0 1 32.569 8.727 33.845 33.845 0 0 1 8.726 32.567 4.811 4.811 0 0 1 -3.394 3.4 33.7 33.7 0 0 1 -8.683 1.136zm-20.543-42.967a29.627 29.627 0 0 0 -7.647 1 .8.8 0 0 0 -.564.565 29.747 29.747 0 0 0 36.4 36.4.8.8 0 0 0 .564-.565 29.7 29.7 0 0 0 -28.751-37.4z"/><path d="m200.632 184.767a33.719 33.719 0 0 1 -8.677-1.136 4.808 4.808 0 0 1 -3.4-3.4 33.717 33.717 0 0 1 41.294-41.293 4.812 4.812 0 0 1 3.4 3.4 33.7 33.7 0 0 1 -32.618 42.429zm20.543-42.967a29.7 29.7 0 0 0 -28.751 37.4.8.8 0 0 0 .564.563 29.668 29.668 0 0 0 7.644 1 29.7 29.7 0 0 0 28.753-37.4.8.8 0 0 0 -.566-.563 29.646 29.646 0 0 0 -7.644-1z"/><path d="m178.214 231.085a33.7 33.7 0 0 1 -32.614-42.429 4.812 4.812 0 0 1 3.4-3.4 33.845 33.845 0 0 1 32.569 8.726 33.845 33.845 0 0 1 8.726 32.567 4.813 4.813 0 0 1 -3.394 3.4 33.7 33.7 0 0 1 -8.687 1.136zm-20.543-42.963a29.669 29.669 0 0 0 -7.647 1 .8.8 0 0 0 -.564.566 29.747 29.747 0 0 0 36.4 36.4.8.8 0 0 0 .564-.565 29.7 29.7 0 0 0 -28.751-37.4z"/><path d="m200.632 231.085a33.676 33.676 0 0 1 -8.677-1.136 4.808 4.808 0 0 1 -3.4-3.4 33.717 33.717 0 0 1 41.294-41.293 4.812 4.812 0 0 1 3.4 3.4 33.7 33.7 0 0 1 -32.618 42.429zm20.542-42.963a29.7 29.7 0 0 0 -28.75 37.4.8.8 0 0 0 .564.563 29.668 29.668 0 0 0 7.644 1 29.7 29.7 0 0 0 28.753-37.4.8.8 0 0 0 -.566-.563 29.643 29.643 0 0 0 -7.645-1z"/><path d="m66.577 254a2 2 0 0 1 -2-2v-155.163a2 2 0 1 1 4 0v155.163a2 2 0 0 1 -2 2z"/></g><path d="m24.683 142.853a2.8 2.8 0 0 1 1.98-1.98 31.716 31.716 0 0 1 38.846 38.845 2.8 2.8 0 0 1 -1.98 1.98 31.717 31.717 0 0 1 -38.846-38.845z" fill="#fcc24c"/><path d="m24.683 189.171a2.8 2.8 0 0 1 1.98-1.98 31.717 31.717 0 0 1 38.846 38.845 2.8 2.8 0 0 1 -1.98 1.98 31.716 31.716 0 0 1 -38.846-38.845z" fill="#fcc24c"/><path d="m24.683 142.85a2.8 2.8 0 0 1 1.98-1.98 31.706 31.706 0 0 1 12.137-.812 31.59 31.59 0 0 0 -4.137.812 2.8 2.8 0 0 0 -1.98 1.98 31.67 31.67 0 0 0 26.711 39.656 31.708 31.708 0 0 1 -34.711-39.656z" fill="#fce06a"/><path d="m24.683 189.166a2.8 2.8 0 0 1 1.98-1.98 31.706 31.706 0 0 1 12.137-.812 31.59 31.59 0 0 0 -4.137.812 2.8 2.8 0 0 0 -1.98 1.98 31.67 31.67 0 0 0 26.711 39.655 31.708 31.708 0 0 1 -34.711-39.655z" fill="#fce06a"/><path d="m24.683 96.535a2.8 2.8 0 0 1 1.98-1.98 31.716 31.716 0 0 1 38.846 38.845 2.8 2.8 0 0 1 -1.98 1.98 31.717 31.717 0 0 1 -38.846-38.845z" fill="#fcc24c"/><path d="m65.177 44.32a2.8 2.8 0 0 1 2.8 0 31.717 31.717 0 0 1 0 54.936 2.8 2.8 0 0 1 -2.8 0 31.717 31.717 0 0 1 0-54.936z" fill="#fcc24c"/><path d="m65.177 44.32a2.8 2.8 0 0 1 2.8 0c.9.523 1.762 1.1 2.6 1.7a31.667 31.667 0 0 0 0 51.534c-.838.6-1.7 1.178-2.6 1.7a2.8 2.8 0 0 1 -2.8 0 31.718 31.718 0 0 1 0-54.936z" fill="#fce06a"/><path d="m66.578 101.632a4.8 4.8 0 0 1 -2.4-.645 33.716 33.716 0 0 1 0-58.4 4.8 4.8 0 0 1 4.8 0 33.716 33.716 0 0 1 0 58.4 4.8 4.8 0 0 1 -2.4.645zm-.4-55.581a29.716 29.716 0 0 0 0 51.474.807.807 0 0 0 .8 0 29.717 29.717 0 0 0 0-51.474.8.8 0 0 0 -.8 0z" fill="#690589"/><path d="m75.855 102.763a31.839 31.839 0 0 1 30.636-8.208 2.8 2.8 0 0 1 1.981 1.98 31.748 31.748 0 0 1 -38.846 38.845 2.8 2.8 0 0 1 -1.98-1.98 31.84 31.84 0 0 1 8.209-30.637z" fill="#fcc24c"/><path d="m24.683 96.535a2.8 2.8 0 0 1 1.98-1.981 31.746 31.746 0 0 1 12.137-.812 31.923 31.923 0 0 0 -4.137.812 2.8 2.8 0 0 0 -1.98 1.981 31.67 31.67 0 0 0 26.711 39.655 31.708 31.708 0 0 1 -34.711-39.655z" fill="#fce06a"/><path d="m75.855 149.081a31.839 31.839 0 0 1 30.636-8.208 2.8 2.8 0 0 1 1.981 1.98 31.746 31.746 0 0 1 -38.846 38.847 2.8 2.8 0 0 1 -1.98-1.98 31.84 31.84 0 0 1 8.209-30.639z" fill="#fcc24c"/><path d="m75.855 195.4a31.837 31.837 0 0 1 30.636-8.209 2.8 2.8 0 0 1 1.981 1.98 31.746 31.746 0 0 1 -38.846 38.845 2.8 2.8 0 0 1 -1.98-1.98 31.838 31.838 0 0 1 8.209-30.636z" fill="#fcc24c"/><path d="m77.786 138.448a33.651 33.651 0 0 1 -8.676-1.136 4.807 4.807 0 0 1 -3.4-3.4 33.843 33.843 0 0 1 8.726-32.566 33.839 33.839 0 0 1 32.567-8.727 4.81 4.81 0 0 1 3.4 3.4 33.7 33.7 0 0 1 -32.617 42.43zm-.517-34.271a29.835 29.835 0 0 0 -7.69 28.707.8.8 0 0 0 .565.564 29.673 29.673 0 0 0 7.642 1 29.7 29.7 0 0 0 28.753-37.4.8.8 0 0 0 -.564-.563 29.839 29.839 0 0 0 -28.706 7.69z" fill="#690589"/><path d="m55.368 138.448a33.7 33.7 0 0 1 -32.618-42.428 4.808 4.808 0 0 1 3.395-3.395 33.716 33.716 0 0 1 41.3 41.293 4.811 4.811 0 0 1 -3.394 3.4 33.679 33.679 0 0 1 -8.683 1.13zm-28.753-41.398a29.75 29.75 0 0 0 36.4 36.4.8.8 0 0 0 .563-.565 29.716 29.716 0 0 0 -36.4-36.4.8.8 0 0 0 -.564.563z" fill="#690589"/><path d="m77.786 184.767a33.712 33.712 0 0 1 -8.676-1.136 4.808 4.808 0 0 1 -3.4-3.4 33.843 33.843 0 0 1 8.726-32.566 33.844 33.844 0 0 1 32.567-8.727 4.812 4.812 0 0 1 3.4 3.4 33.7 33.7 0 0 1 -32.617 42.431zm-.517-34.267a29.834 29.834 0 0 0 -7.69 28.707.8.8 0 0 0 .565.563 29.653 29.653 0 0 0 7.642 1 29.7 29.7 0 0 0 28.753-37.4.8.8 0 0 0 -.565-.564 29.829 29.829 0 0 0 -28.7 7.691z" fill="#690589"/><path d="m55.368 184.767a33.7 33.7 0 0 1 -32.618-42.429 4.813 4.813 0 0 1 3.394-3.4 33.718 33.718 0 0 1 41.3 41.294 4.811 4.811 0 0 1 -3.394 3.4 33.7 33.7 0 0 1 -8.682 1.135zm-28.753-41.4a29.748 29.748 0 0 0 36.4 36.4.8.8 0 0 0 .563-.565 29.717 29.717 0 0 0 -36.4-36.4.8.8 0 0 0 -.564.564z" fill="#690589"/><path d="m77.786 231.085a33.668 33.668 0 0 1 -8.676-1.136 4.808 4.808 0 0 1 -3.4-3.4 33.843 33.843 0 0 1 8.726-32.566 33.855 33.855 0 0 1 32.567-8.727 4.812 4.812 0 0 1 3.4 3.4 33.7 33.7 0 0 1 -32.617 42.431zm-.517-34.271a29.835 29.835 0 0 0 -7.69 28.707.8.8 0 0 0 .565.563 29.653 29.653 0 0 0 7.642 1 29.7 29.7 0 0 0 28.753-37.4.8.8 0 0 0 -.565-.564 29.835 29.835 0 0 0 -28.7 7.691z" fill="#690589"/><path d="m55.368 231.085a33.7 33.7 0 0 1 -32.618-42.429 4.81 4.81 0 0 1 3.394-3.4 33.717 33.717 0 0 1 41.3 41.293 4.813 4.813 0 0 1 -3.394 3.4 33.7 33.7 0 0 1 -8.682 1.136zm-28.753-41.4a29.748 29.748 0 0 0 36.4 36.4.8.8 0 0 0 .563-.565 29.717 29.717 0 0 0 -36.4-36.4.8.8 0 0 0 -.564.564z" fill="#690589"/><path d="m128 254a2 2 0 0 1 -2-2v-184.953a2 2 0 0 1 4 0v184.953a2 2 0 0 1 -2 2z" fill="#690589"/><path d="m129.669 4.448a3.334 3.334 0 0 0 -3.338 0 37.805 37.805 0 0 0 0 65.482 3.326 3.326 0 0 0 3.338 0 37.805 37.805 0 0 0 0-65.482z" fill="#f9874e"/><path d="m128 72.379a5.343 5.343 0 0 1 -2.67-.717 39.806 39.806 0 0 1 0-68.945 5.351 5.351 0 0 1 5.341 0 39.806 39.806 0 0 1 0 68.944 5.34 5.34 0 0 1 -2.671.718zm0-66.379a1.335 1.335 0 0 0 -.668.178 35.805 35.805 0 0 0 0 62.02 1.347 1.347 0 0 0 1.335 0 35.806 35.806 0 0 0 0-62.02 1.334 1.334 0 0 0 -.667-.178z" fill="#690589"/><path d="m116.942 74.111a37.954 37.954 0 0 0 -36.519-9.785 3.334 3.334 0 0 0 -2.36 2.361 37.841 37.841 0 0 0 46.3 46.3 3.335 3.335 0 0 0 2.36-2.36 37.955 37.955 0 0 0 -9.781-36.516z" fill="#f9874e"/><path d="m177.938 66.687a3.336 3.336 0 0 0 -2.361-2.361 37.807 37.807 0 0 0 -46.3 46.3 3.333 3.333 0 0 0 2.36 2.36 37.807 37.807 0 0 0 46.3-46.3z" fill="#f9874e"/><path d="m116.942 129.322a37.954 37.954 0 0 0 -36.519-9.785 3.334 3.334 0 0 0 -2.36 2.361 37.841 37.841 0 0 0 46.3 46.3 3.335 3.335 0 0 0 2.36-2.36 37.955 37.955 0 0 0 -9.781-36.516z" fill="#f9874e"/><path d="m177.938 121.9a3.336 3.336 0 0 0 -2.361-2.361 37.807 37.807 0 0 0 -46.3 46.3 3.333 3.333 0 0 0 2.36 2.36 37.807 37.807 0 0 0 46.3-46.3z" fill="#f9874e"/><path d="m116.942 184.533a37.954 37.954 0 0 0 -36.519-9.785 3.334 3.334 0 0 0 -2.36 2.361 37.843 37.843 0 0 0 46.3 46.3 3.334 3.334 0 0 0 2.36-2.361 37.953 37.953 0 0 0 -9.781-36.515z" fill="#f9874e"/><path d="m177.938 177.109a3.336 3.336 0 0 0 -2.361-2.361 37.806 37.806 0 0 0 -46.3 46.3 3.333 3.333 0 0 0 2.36 2.361 37.807 37.807 0 0 0 46.3-46.3z" fill="#f9874e"/><path d="m114.639 116.264a39.787 39.787 0 0 1 -38.509-50.093 5.352 5.352 0 0 1 3.775-3.777 39.96 39.96 0 0 1 38.45 10.3 39.956 39.956 0 0 1 10.3 38.448 5.347 5.347 0 0 1 -3.776 3.777 39.763 39.763 0 0 1 -10.24 1.345zm-24.488-51.212a35.7 35.7 0 0 0 -9.213 1.207 1.341 1.341 0 0 0 -.944.945 35.842 35.842 0 0 0 43.856 43.854 1.336 1.336 0 0 0 .943-.944 35.785 35.785 0 0 0 -34.642-45.062z" fill="#690589"/><path d="m141.361 116.264a39.806 39.806 0 0 1 -10.243-1.341 5.352 5.352 0 0 1 -3.776-3.777 39.806 39.806 0 0 1 48.751-48.752 5.348 5.348 0 0 1 3.777 3.777 39.787 39.787 0 0 1 -38.509 50.093zm24.488-51.212a35.786 35.786 0 0 0 -34.643 45.062 1.339 1.339 0 0 0 .945.944 35.749 35.749 0 0 0 9.21 1.206 35.786 35.786 0 0 0 34.644-45.064 1.335 1.335 0 0 0 -.945-.945 35.727 35.727 0 0 0 -9.211-1.203z" fill="#690589"/><path d="m114.639 171.475a39.787 39.787 0 0 1 -38.509-50.093 5.352 5.352 0 0 1 3.776-3.777 39.806 39.806 0 0 1 48.752 48.751 5.347 5.347 0 0 1 -3.776 3.777 39.752 39.752 0 0 1 -10.243 1.342zm-24.487-51.212a35.746 35.746 0 0 0 -9.214 1.207 1.339 1.339 0 0 0 -.944.945 35.842 35.842 0 0 0 43.856 43.854 1.336 1.336 0 0 0 .943-.944 35.785 35.785 0 0 0 -34.641-45.062z" fill="#690589"/><path d="m141.361 171.475a39.752 39.752 0 0 1 -10.243-1.342 5.347 5.347 0 0 1 -3.776-3.775 39.807 39.807 0 0 1 48.751-48.753 5.348 5.348 0 0 1 3.777 3.777 39.787 39.787 0 0 1 -38.509 50.093zm24.487-51.211a35.785 35.785 0 0 0 -34.642 45.061 1.336 1.336 0 0 0 .944.944 35.757 35.757 0 0 0 9.211 1.206 35.786 35.786 0 0 0 34.644-45.062 1.334 1.334 0 0 0 -.945-.943 35.723 35.723 0 0 0 -9.212-1.206z" fill="#690589"/><path d="m114.639 226.685a39.786 39.786 0 0 1 -38.509-50.092 5.352 5.352 0 0 1 3.776-3.777 39.957 39.957 0 0 1 38.449 10.3 39.956 39.956 0 0 1 10.3 38.448 5.347 5.347 0 0 1 -3.776 3.777 39.762 39.762 0 0 1 -10.24 1.344zm-24.487-51.211a35.746 35.746 0 0 0 -9.214 1.207 1.339 1.339 0 0 0 -.944.945 35.842 35.842 0 0 0 43.856 43.853 1.333 1.333 0 0 0 .943-.943 35.785 35.785 0 0 0 -34.641-45.062z" fill="#690589"/><path d="m141.361 226.685a39.8 39.8 0 0 1 -10.243-1.34 5.352 5.352 0 0 1 -3.776-3.777 39.806 39.806 0 0 1 48.751-48.752 5.348 5.348 0 0 1 3.777 3.777 39.786 39.786 0 0 1 -38.509 50.092zm24.487-51.211a35.786 35.786 0 0 0 -34.642 45.062 1.339 1.339 0 0 0 .945.944 35.748 35.748 0 0 0 9.21 1.205 35.785 35.785 0 0 0 34.644-45.061 1.334 1.334 0 0 0 -.945-.943 35.725 35.725 0 0 0 -9.212-1.207z" fill="#690589"/><path d="m32.877 116a2 2 0 0 1 -1.93-1.479 43.172 43.172 0 0 1 -1.447-9.121 2 2 0 1 1 3.994-.2 39.217 39.217 0 0 0 1.311 8.276 2 2 0 0 1 -1.928 2.524z" fill="#690589"/></svg>