<?xml version="1.0" encoding="utf-8"?>
<!-- Generator: Adobe Illustrator 23.0.3, SVG Export Plug-In . SVG Version: 6.00 Build 0)  -->
<svg version="1.0" id="레이어_1" xmlns="http://www.w3.org/2000/svg" xmlns:xlink="http://www.w3.org/1999/xlink" x="0px"
	 y="0px" viewBox="0 0 188.9 64" style="enable-background:new 0 0 188.9 64;" xml:space="preserve">
<style type="text/css">
	.st0{fill:#FFFFFF;}
	.st1{fill:#157D3B;}
</style>
<g>
	<path class="st0" d="M54.8,20c-1.2,0-16.3,0-16.3-18.7c0,0,0-1.3-1.2-1.3H28H9.3H5.6C2.5,0,0,2.8,0,6.3v4.3v42.7v4.3
		C0,61.2,2.5,64,5.6,64h3.8h28c0,0,18.7,0,18.7-21.3V21.3C56,21.3,56,20,54.8,20z M45.4,38.6c0,1-0.1,1.9-0.2,2.8
		c-1.5,10.5-11.4,10.5-11.4,10.5H16.4H14c-0.3,0-0.6,0-0.8-0.1c-0.7-0.2-1.3-0.6-1.7-1.2c-0.6-0.7-0.9-1.5-0.9-2.5V48v-2.7V18.7V16
		v-0.2c0-0.9,0.3-1.8,0.9-2.5c0.5-0.6,1.1-1,1.7-1.2c0.3-0.1,0.5-0.1,0.8-0.1h2.4H28h5.8c0.4,0,0.6,0.3,0.7,0.5
		c0.2,0.5,0.4,1.1,0.6,1.6c2.5,5.7,3.9,7.4,9.6,10.4c0.1,0.1,0.2,0.1,0.3,0.2c0.3,0.2,0.4,0.6,0.4,0.9V38.6L45.4,38.6z"/>
	<path class="st0" d="M42.8,0L42.8,0L42.8,0c-0.1,0-0.1,0-0.1,0.1l0,0l0,0c0.8,14.6,9.4,14.6,10.5,14.5l0,0l0,0
		c0.1,0,0.1-0.1,0.1-0.1l0,0l0,0C53.4,13.2,53.5,1.2,42.8,0z"/>
</g>
<g>
	<path class="st0" d="M83.4,47c2.2,0,4.4-0.2,6.7-0.5c2.3-0.3,4.2-0.8,5.8-1.3v9.1c-1.5,0.6-3.5,1.1-6,1.4c-2.5,0.3-5,0.5-7.4,0.5
		H70.1V6.6h23.4v9.3H80.3V47H83.4z M122.4,5.4v53.5h-9.9V35h-4.4v22.8h-9.8V5.6h9.8V25h4.4V5.4H122.4z"/>
	<path class="st0" d="M147.8,11.9h9v9.5h-28.5v-9.5h9.1V5.2h10.5V11.9z M149.5,25.4c2,1.3,3.5,3.1,4.7,5.6s1.7,5.6,1.7,9.2
		s-0.6,6.7-1.7,9.2s-2.7,4.4-4.7,5.6c-2,1.3-4.2,1.9-6.8,1.9c-3.9,0-7-1.4-9.4-4.3c-2.4-2.9-3.6-7-3.6-12.4s1.2-9.6,3.6-12.4
		c2.4-2.9,5.5-4.3,9.4-4.3C145.2,23.5,147.5,24.1,149.5,25.4z M145.4,45.8c0.7-1.4,1-3.2,1-5.6s-0.3-4.2-1-5.6c-0.7-1.4-1.6-2-2.7-2
		c-1,0-1.9,0.7-2.6,2c-0.7,1.3-1,3.2-1,5.6c0,2.4,0.3,4.3,1,5.6c0.7,1.3,1.5,2,2.6,2C143.8,47.9,144.7,47.2,145.4,45.8z M182.6,5.4
		v53.5h-9.7V35h-4.3v22.8H159V5.6h9.6V25h4.3V5.4H182.6z"/>
</g>
<g>
	<path class="st1" d="M59-99.7c-1.2,0-16.3,0-16.3-18.7c0,0,0-1.3-1.2-1.3h-9.3H13.5H9.7c-3.1,0-5.6,2.8-5.6,6.3v4.3v42.7v4.3
		c0,3.5,2.5,6.3,5.6,6.3h3.8h28c0,0,18.7,0,18.7-21.3v-21.3C60.1-98.4,60.1-99.7,59-99.7z M49.6-81.1c0,1-0.1,1.9-0.2,2.8
		c-1.5,10.5-11.4,10.5-11.4,10.5H20.5h-2.4c-0.3,0-0.6,0-0.8-0.1c-0.7-0.2-1.3-0.6-1.7-1.2c-0.6-0.7-0.9-1.5-0.9-2.5v-0.2v-2.7V-101
		v-2.7v-0.2c0-0.9,0.3-1.8,0.9-2.5c0.5-0.6,1.1-1,1.7-1.2c0.3-0.1,0.5-0.1,0.8-0.1h2.4h11.6H38c0.4,0,0.6,0.3,0.7,0.5
		c0.2,0.5,0.4,1.1,0.6,1.6c2.5,5.7,3.9,7.4,9.6,10.4c0.1,0.1,0.2,0.1,0.3,0.2c0.3,0.2,0.4,0.6,0.4,0.9V-81.1L49.6-81.1z"/>
	<path class="st1" d="M46.9-119.7L46.9-119.7L46.9-119.7c-0.1,0-0.1,0-0.1,0.1l0,0l0,0c0.8,14.6,9.4,14.6,10.5,14.5l0,0l0,0
		c0.1,0,0.1-0.1,0.1-0.1l0,0l0,0C57.5-106.5,57.7-118.5,46.9-119.7z"/>
</g>
<g>
	<path class="st1" d="M87.5-72.7c2.2,0,4.4-0.2,6.7-0.5c2.3-0.3,4.2-0.8,5.8-1.3v9.1c-1.5,0.6-3.5,1.1-6,1.4c-2.5,0.3-5,0.5-7.4,0.5
		H74.3v-49.7h23.4v9.3H84.5v31.2H87.5z M126.6-114.3v53.5h-9.9v-23.8h-4.4v22.8h-9.8v-52.3h9.8v19.4h4.4v-19.7H126.6z"/>
	<path class="st1" d="M151.9-107.8h9v9.5h-28.5v-9.5h9.1v-6.8h10.5V-107.8z M153.6-94.3c2,1.3,3.5,3.1,4.7,5.6s1.7,5.6,1.7,9.2
		s-0.6,6.7-1.7,9.2s-2.7,4.4-4.7,5.6c-2,1.3-4.2,1.9-6.8,1.9c-3.9,0-7-1.4-9.4-4.3c-2.4-2.9-3.6-7-3.6-12.4s1.2-9.6,3.6-12.4
		c2.4-2.9,5.5-4.3,9.4-4.3C149.4-96.2,151.7-95.6,153.6-94.3z M149.5-73.9c0.7-1.4,1-3.2,1-5.6s-0.3-4.2-1-5.6c-0.7-1.4-1.6-2-2.7-2
		c-1,0-1.9,0.7-2.6,2c-0.7,1.3-1,3.2-1,5.6c0,2.4,0.3,4.3,1,5.6c0.7,1.3,1.5,2,2.6,2C147.9-71.8,148.8-72.5,149.5-73.9z
		 M186.8-114.3v53.5h-9.7v-23.8h-4.3v22.8h-9.6v-52.3h9.6v19.4h4.3v-19.7H186.8z"/>
</g>
</svg>
