<svg id="Layer_1" enable-background="new 0 0 256 256" height="512" viewBox="0 0 256 256" width="512" xmlns="http://www.w3.org/2000/svg"><g fill="#f9a7a7"><path d="m52.476 235.147h-.373c-2.195 0-3.975-1.779-3.975-3.975v-123.205c0-2.298 1.863-4.161 4.161-4.161 2.298 0 4.161 1.863 4.161 4.161v123.205c0 2.195-1.779 3.975-3.974 3.975z"/><path d="m57.481 108.305c6.846-8.026 8.209-19.376 3.459-28.795l-6.128-12.15v-13.591c0-1.393-1.129-2.523-2.523-2.523s-2.523 1.129-2.523 2.523v13.591l-6.128 12.15c-4.75 9.419-3.387 20.768 3.459 28.794 2.725 3.195 7.66 3.195 10.384.001z"/><path d="m86.741 105.125.009.004v-15.88c0-1.366-1.023-2.59-2.387-2.662-1.455-.076-2.658 1.081-2.658 2.519v16.343c0 .306-.182.583-.464.704l-10.115 4.343c-8.904 3.823-14.675 12.581-14.675 22.271 0 3.369 2.731 6.101 6.101 6.101h1.17c9.509-1.598 17.132-8.744 19.339-18.13z"/><path d="m85.661 134.905-14.714 6.317c-8.86 3.804-14.574 12.552-14.496 22.194.031 3.837 3.487 6.737 7.271 6.101 9.509-1.598 17.132-8.744 19.339-18.13l3.666-15.587c.148-.623-.477-1.147-1.066-.895z"/><path d="m85.661 165.555-14.714 6.317c-8.86 3.804-14.574 12.552-14.496 22.194.031 3.837 3.487 6.737 7.271 6.101 9.509-1.598 17.132-8.744 19.339-18.13l3.666-15.587c.148-.623-.477-1.147-1.066-.895z"/><path d="m85.661 196.205-14.714 6.317c-8.86 3.804-14.574 12.552-14.496 22.194.031 3.837 3.487 6.737 7.271 6.101 9.509-1.598 17.132-8.744 19.339-18.13l3.666-15.587c.148-.623-.477-1.147-1.066-.895z"/><path d="m21.517 120.738c2.208 9.386 9.83 16.532 19.339 18.13h1.17c3.369 0 6.101-2.732 6.101-6.101 0-9.689-5.771-18.448-14.675-22.271l-10.115-4.343c-.281-.121-.464-.398-.464-.704v-16.2c0-1.366-1.023-2.59-2.387-2.662-1.455-.076-2.658 1.081-2.658 2.519v16.022l.009-.004z"/><path d="m33.631 141.223-14.714-6.317c-.588-.253-1.213.272-1.067.895l3.666 15.587c2.208 9.386 9.83 16.532 19.339 18.13 3.784.636 7.24-2.264 7.271-6.101.079-9.643-5.635-18.39-14.495-22.194z"/><path d="m33.631 171.873-14.714-6.317c-.588-.253-1.213.272-1.067.895l3.666 15.587c2.208 9.386 9.83 16.532 19.339 18.13 3.784.636 7.24-2.264 7.271-6.101.079-9.643-5.635-18.39-14.495-22.194z"/><path d="m33.631 202.523-14.714-6.317c-.588-.253-1.213.272-1.067.895l3.666 15.587c2.208 9.386 9.83 16.532 19.339 18.13 3.784.636 7.24-2.264 7.271-6.101.079-9.643-5.635-18.39-14.495-22.194z"/><path d="m203.404 235.147h-.373c-2.195 0-3.975-1.779-3.975-3.975v-123.205c0-2.298 1.863-4.161 4.161-4.161 2.298 0 4.161 1.863 4.161 4.161v123.205c0 2.195-1.779 3.975-3.974 3.975z"/><path d="m208.409 108.305c6.846-8.026 8.209-19.376 3.459-28.795l-6.128-12.15v-13.591c0-1.393-1.129-2.523-2.523-2.523-1.393 0-2.523 1.129-2.523 2.523v13.591l-6.128 12.15c-4.75 9.419-3.387 20.768 3.459 28.794 2.725 3.195 7.66 3.195 10.384.001z"/><path d="m237.669 105.125.009.004v-15.88c0-1.366-1.023-2.59-2.387-2.662-1.455-.076-2.658 1.081-2.658 2.519v16.343c0 .306-.182.583-.464.704l-10.115 4.343c-8.904 3.823-14.675 12.581-14.675 22.271 0 3.369 2.731 6.101 6.101 6.101h1.17c9.509-1.598 17.132-8.744 19.339-18.13z"/><path d="m236.589 134.905-14.714 6.317c-8.86 3.804-14.574 12.552-14.496 22.194.031 3.837 3.487 6.737 7.271 6.101 9.509-1.598 17.132-8.744 19.339-18.13l3.666-15.587c.147-.623-.478-1.147-1.066-.895z"/><path d="m236.589 165.555-14.714 6.317c-8.86 3.804-14.574 12.552-14.496 22.194.031 3.837 3.487 6.737 7.271 6.101 9.509-1.598 17.132-8.744 19.339-18.13l3.666-15.587c.147-.623-.478-1.147-1.066-.895z"/><path d="m236.589 196.205-14.714 6.317c-8.86 3.804-14.574 12.552-14.496 22.194.031 3.837 3.487 6.737 7.271 6.101 9.509-1.598 17.132-8.744 19.339-18.13l3.666-15.587c.147-.623-.478-1.147-1.066-.895z"/><path d="m172.445 120.738c2.208 9.386 9.83 16.532 19.339 18.13h1.17c3.369 0 6.101-2.732 6.101-6.101 0-9.689-5.771-18.448-14.675-22.271l-10.115-4.343c-.281-.121-.464-.398-.464-.704v-16.2c0-1.366-1.023-2.59-2.387-2.662-1.455-.076-2.658 1.081-2.658 2.519v16.022l.009-.004z"/><path d="m184.559 141.223-14.714-6.317c-.588-.253-1.213.272-1.067.895l3.666 15.587c2.208 9.386 9.83 16.532 19.339 18.13 3.784.636 7.24-2.264 7.271-6.101.079-9.643-5.635-18.39-14.495-22.194z"/><path d="m184.559 171.873-14.714-6.317c-.588-.253-1.213.272-1.067.895l3.666 15.587c2.208 9.386 9.83 16.532 19.339 18.13 3.784.636 7.24-2.264 7.271-6.101.079-9.643-5.635-18.39-14.495-22.194z"/><path d="m184.559 202.523-14.714-6.317c-.588-.253-1.213.272-1.067.895l3.666 15.587c2.208 9.386 9.83 16.532 19.339 18.13 3.784.636 7.24-2.264 7.271-6.101.079-9.643-5.635-18.39-14.495-22.194z"/><path d="m128.244 248h-.487c-2.865 0-5.187-2.322-5.187-5.187v-160.789c0-2.999 2.431-5.431 5.431-5.431 2.999 0 5.431 2.431 5.431 5.431v160.789c-.001 2.865-2.324 5.187-5.188 5.187z"/></g><path d="m128.244 250h-.487c-3.963 0-7.187-3.224-7.187-7.187v-160.789c0-4.097 3.333-7.431 7.431-7.431s7.431 3.333 7.431 7.431v160.789c-.001 3.963-3.225 7.187-7.188 7.187zm-.244-171.407c-1.892 0-3.431 1.539-3.431 3.431v160.789c0 1.757 1.43 3.187 3.187 3.187h.487c1.757 0 3.187-1.43 3.187-3.187v-160.789c.001-1.892-1.538-3.431-3.43-3.431z" fill="#3762cc"/><path d="m134.776 82.464c8.934-10.475 10.713-25.286 4.514-37.579l-7.997-15.857v-17.736c-.001-1.818-1.475-3.292-3.293-3.292s-3.292 1.474-3.292 3.292v17.737l-7.997 15.857c-6.2 12.292-4.421 27.104 4.514 37.578 3.555 4.169 9.995 4.169 13.551 0z" fill="#f9cfcf"/><path d="m172.962 78.314.011.005v-20.724c0-1.783-1.335-3.38-3.115-3.474-1.899-.099-3.469 1.411-3.469 3.287v21.328c0 .4-.238.761-.605.919l-13.2 5.667c-11.62 4.989-19.151 16.419-19.151 29.064 0 4.397 3.565 7.962 7.962 7.962h1.527c12.41-2.085 22.358-11.411 25.239-23.661z" fill="#f9cfcf"/><path d="m171.553 117.179-19.203 8.245c-11.563 4.965-19.02 16.381-18.918 28.964.04 5.008 4.55 8.792 9.489 7.962 12.41-2.085 22.358-11.411 25.239-23.661l4.785-20.343c.191-.812-.625-1.496-1.392-1.167z" fill="#f9cfcf"/><path d="m171.553 157.179-19.203 8.245c-11.563 4.965-19.02 16.381-18.918 28.964.04 5.008 4.55 8.792 9.489 7.962 12.41-2.085 22.358-11.411 25.239-23.661l4.785-20.343c.191-.812-.625-1.496-1.392-1.167z" fill="#f9cfcf"/><path d="m171.553 197.179-19.203 8.245c-11.563 4.965-19.02 16.381-18.918 28.964.04 5.008 4.55 8.792 9.489 7.962 12.41-2.085 22.358-11.411 25.239-23.661l4.785-20.343c.191-.812-.625-1.496-1.392-1.167z" fill="#f9cfcf"/><path d="m87.84 98.69c2.881 12.25 12.829 21.575 25.239 23.661h1.527c4.397 0 7.962-3.565 7.962-7.962 0-12.645-7.532-24.076-19.151-29.064l-13.2-5.667c-.367-.158-.605-.519-.605-.919v-21.142c0-1.783-1.335-3.381-3.115-3.474-1.899-.099-3.469 1.411-3.469 3.287v20.91l.011-.005z" fill="#f9cfcf"/><path d="m103.65 125.424-19.203-8.245c-.768-.33-1.583.355-1.392 1.168l4.785 20.343c2.881 12.25 12.829 21.575 25.239 23.661 4.939.83 9.448-2.954 9.489-7.962.102-12.584-7.355-24.001-18.918-28.965z" fill="#f9cfcf"/><path d="m103.65 165.424-19.203-8.245c-.768-.33-1.583.355-1.392 1.168l4.785 20.343c2.881 12.25 12.829 21.575 25.239 23.661 4.939.83 9.448-2.954 9.489-7.962.102-12.584-7.355-24.001-18.918-28.965z" fill="#f9cfcf"/><path d="m103.65 205.424-19.203-8.245c-.768-.33-1.583.355-1.392 1.168l4.785 20.343c2.881 12.25 12.829 21.575 25.239 23.661 4.939.83 9.448-2.954 9.489-7.962.102-12.584-7.355-24.001-18.918-28.965z" fill="#f9cfcf"/><path d="m128 87.591c-3.198 0-6.222-1.396-8.297-3.829-9.483-11.117-11.358-26.73-4.778-39.777l7.783-15.432v-17.261c0-2.918 2.374-5.292 5.292-5.292s5.292 2.374 5.292 5.292v17.261l7.783 15.432c6.58 13.046 4.705 28.66-4.778 39.777-2.075 2.433-5.099 3.829-8.297 3.829zm0-77.591c-.712 0-1.292.58-1.292 1.292v17.737c0 .313-.073.621-.214.901l-7.998 15.857c-5.853 11.604-4.185 25.491 4.25 35.379 1.314 1.541 3.229 2.424 5.254 2.425 2.025 0 3.94-.884 5.254-2.424 8.434-9.889 10.102-23.776 4.25-35.38l-7.998-15.857c-.141-.28-.214-.588-.214-.901v-17.737c0-.712-.58-1.292-1.292-1.292zm6.776 72.464h.01z" fill="#3762cc"/><path d="m142.92 124.351h-1.527c-5.493 0-9.962-4.469-9.962-9.962 0-13.461 7.993-25.591 20.362-30.902l12.595-5.407v-20.67c0-1.445.601-2.844 1.649-3.839 1.064-1.009 2.455-1.532 3.925-1.446 2.81.147 5.01 2.55 5.01 5.471v20.724c0 .231-.04.458-.115.669l-4.751 20.16c-3.074 13.067-13.615 22.949-26.854 25.174-.109.018-.221.028-.332.028zm26.763-68.234c-.334 0-.648.125-.891.354-.26.247-.403.58-.403.938v21.329c0 1.201-.713 2.283-1.816 2.757l-13.201 5.667c-10.898 4.679-17.94 15.366-17.94 27.227 0 3.288 2.674 5.962 5.962 5.962h1.357c11.57-2.01 20.77-10.676 23.462-22.119l4.76-20.198v-20.439c0-.766-.559-1.442-1.219-1.477-.025 0-.048-.001-.071-.001z" fill="#3762cc"/><path d="m141.567 164.464c-2.366 0-4.671-.828-6.513-2.374-2.278-1.911-3.598-4.712-3.622-7.686-.108-13.425 7.793-25.521 20.129-30.818l19.203-8.245h.001c1.053-.45 2.252-.274 3.13.463.877.736 1.259 1.887.997 3.002l-4.785 20.342c-3.074 13.068-13.615 22.95-26.854 25.175-.563.094-1.126.141-1.686.141zm28.984-44.678-17.412 7.476c-10.852 4.659-17.803 15.301-17.708 27.11.015 1.8.814 3.497 2.193 4.654 1.379 1.158 3.189 1.648 4.964 1.352 11.647-1.958 20.92-10.65 23.624-22.146zm1.79-.768h-.001z" fill="#3762cc"/><path d="m141.567 204.464c-2.366 0-4.671-.828-6.513-2.374-2.278-1.911-3.598-4.712-3.622-7.686-.108-13.425 7.793-25.521 20.129-30.818l19.203-8.245h.001c1.053-.45 2.252-.274 3.13.463.877.736 1.259 1.887.997 3.002l-4.785 20.342c-3.074 13.068-13.615 22.95-26.854 25.175-.563.094-1.126.141-1.686.141zm28.984-44.678-17.412 7.476c-10.852 4.659-17.803 15.301-17.708 27.11.015 1.8.814 3.497 2.193 4.654 1.379 1.158 3.189 1.648 4.964 1.352 11.647-1.958 20.92-10.65 23.624-22.146zm1.79-.768h-.001z" fill="#3762cc"/><path d="m141.567 244.464c-2.366 0-4.671-.828-6.513-2.374-2.278-1.911-3.598-4.712-3.622-7.686-.108-13.425 7.793-25.521 20.129-30.818l19.203-8.245h.001c1.053-.45 2.252-.273 3.13.463s1.259 1.887.997 3.002l-4.785 20.342c-3.074 13.068-13.615 22.95-26.854 25.175-.563.094-1.126.141-1.686.141zm28.984-44.678-17.412 7.476c-10.852 4.659-17.803 15.301-17.708 27.11.015 1.8.814 3.497 2.193 4.654 1.379 1.158 3.189 1.648 4.964 1.352 11.647-1.958 20.92-10.65 23.624-22.146zm1.79-.768h-.001z" fill="#3762cc"/><path d="m114.606 124.351h-1.527c-.111 0-.222-.009-.332-.028-13.24-2.225-23.781-12.106-26.854-25.175v.001l-4.754-20.175c-.073-.208-.112-.429-.112-.655v-20.91c0-1.445.601-2.844 1.649-3.839 1.063-1.009 2.45-1.532 3.925-1.446 2.81.147 5.01 2.55 5.01 5.471v20.483l12.595 5.407c12.37 5.311 20.362 17.441 20.362 30.902 0 5.494-4.468 9.964-9.962 9.964zm-1.357-4h1.357c3.288 0 5.962-2.675 5.962-5.962 0-11.86-7.042-22.547-17.94-27.227l-13.2-5.667c-1.104-.474-1.816-1.556-1.816-2.757v-21.142c0-.766-.559-1.442-1.219-1.477-.371-.016-.703.107-.962.353-.26.247-.403.58-.403.938v20.625l4.76 20.197v.001c2.691 11.442 11.891 20.107 23.461 22.118z" fill="#3762cc"/><path d="m114.433 164.464c-.56 0-1.123-.046-1.685-.141-13.24-2.225-23.781-12.106-26.854-25.175l-4.785-20.343c-.263-1.115.119-2.265.997-3.001.877-.737 2.078-.913 3.13-.463l19.204 8.245c12.336 5.297 20.238 17.394 20.129 30.818-.024 2.974-1.344 5.775-3.622 7.686-1.843 1.546-4.149 2.374-6.514 2.374zm-28.984-44.678 4.338 18.446c2.704 11.496 11.977 20.189 23.624 22.146 1.777.299 3.585-.194 4.964-1.352 1.379-1.157 2.179-2.854 2.193-4.654.095-11.81-6.855-22.451-17.708-27.11z" fill="#3762cc"/><path d="m114.433 204.464c-.56 0-1.123-.046-1.685-.141-13.24-2.225-23.781-12.106-26.854-25.175l-4.785-20.343c-.263-1.115.119-2.265.997-3.001.877-.737 2.078-.913 3.13-.463l19.204 8.245c12.336 5.297 20.238 17.394 20.129 30.818-.024 2.974-1.344 5.775-3.622 7.686-1.843 1.546-4.149 2.374-6.514 2.374zm-28.984-44.678 4.338 18.446c2.704 11.496 11.977 20.189 23.624 22.146 1.777.297 3.585-.195 4.964-1.352s2.179-2.854 2.193-4.654c.095-11.81-6.855-22.451-17.708-27.11z" fill="#3762cc"/><path d="m114.433 244.464c-.56 0-1.123-.046-1.685-.141-13.24-2.225-23.781-12.106-26.854-25.175l-4.785-20.343c-.263-1.115.119-2.265.997-3.001s2.078-.915 3.13-.463l19.204 8.245c12.336 5.297 20.238 17.394 20.129 30.818-.024 2.974-1.344 5.775-3.622 7.686-1.843 1.546-4.149 2.374-6.514 2.374zm-28.984-44.678 4.338 18.446c2.704 11.496 11.977 20.189 23.624 22.146 1.777.299 3.585-.194 4.964-1.352 1.379-1.157 2.179-2.854 2.193-4.654.095-11.81-6.855-22.451-17.708-27.11z" fill="#3762cc"/></svg>