<?xml version="1.0" encoding="utf-8"?>
<!-- Generator: Adobe Illustrator 23.0.3, SVG Export Plug-In . SVG Version: 6.00 Build 0)  -->
<svg version="1.0" id="레이어_1" xmlns="http://www.w3.org/2000/svg" xmlns:xlink="http://www.w3.org/1999/xlink" x="0px"
	 y="0px" viewBox="0 0 600 600" style="enable-background:new 0 0 600 600;" xml:space="preserve">
<style type="text/css">
	.st0{display:none;fill:#00812E;}
	.st1{display:none;fill:none;stroke:#FF971A;stroke-miterlimit:10;}
	.st2{fill:#00812E;}
</style>
<path class="st0" d="M298.4,297.4h-4c-0.5,0-1,0.5-1,1v4v4c0,0.5,0.5,1,1,1h4c2.8,0,5-2.2,5-5S301.1,297.4,298.4,297.4z"/>
<path class="st1" d="M497.4,204.4l-27-81l-90-36C380.4,87.4,380.4,204.4,497.4,204.4z"/>
<path class="st2" d="M481.1,213.4c-7.9,0-110.3,0-110.3-126c0,0,0-9-7.9-9h-63H174h-25.5c-20.7,0-37.5,19.2-37.5,42.8v29.2v288v29.2
	c0,23.6,16.8,42.8,37.5,42.8H174h189c0,0,126,0,126-144v-144C489,222.4,489,213.4,481.1,213.4z M417.6,339.2
	c0,6.7-0.5,12.9-1.3,18.6c-10,71-77.2,71-77.2,71H221.6h-15.9c-1.9,0-3.8-0.3-5.6-0.8c-4.5-1.3-8.6-4.1-11.6-7.9
	c-3.8-4.5-6.1-10.3-6.1-16.7v-1.3V384V204.8v-18.2v-1.3c0-6.4,2.3-12.2,6.1-16.7c3.1-3.8,7.1-6.6,11.6-7.9c1.8-0.5,3.7-0.8,5.6-0.8
	h15.9H300h39.2c2.7,0,3.9,1.7,4.5,3.2c1.3,3.6,2.6,7.3,4.1,10.8c17.1,38.7,26,49.9,64.9,70c0.7,0.4,1.4,0.8,1.9,1.2
	c2,1.5,3,3.9,3,6.4V339.2L417.6,339.2z"/>
<path class="st2" d="M399.9,87.6h-0.1l0,0c-0.4,0-0.8,0.3-0.8,0.8l0,0l0,0c5.5,98.7,63.6,98.5,71.2,98.1l0,0l0,0
	c0.4,0,0.8-0.4,0.8-0.8l0,0l0,0C471.3,176.9,472.2,95.4,399.9,87.6z"/>
</svg>
